Coordinates
version=1
nRows=19
nColumns=33
inDegrees=yes

Units are S.I. units (second, meters, Newtons, ...)
Angles are in degrees.

endheader
time	ground_thorax_rot_x	ground_thorax_rot_y	ground_thorax_rot_z	ground_thorax_tx	ground_thorax_ty	ground_thorax_tz	clav_prot_r	clav_elev_r	scapula_abduction_r	scapula_elevation_r	scapula_upward_rot_r	scapula_winging_r	shoulder_elv_r	plane_of_elev_r	axial_rot_r	elbow_flexion_r	pro_sup_r	wrist_flex_r	wrist_dev_r	clav_prot_l	clav_elev_l	scapula_abduction_l	scapula_elevation_l	scapula_upward_rot_l	scapula_winging_l	shoulder_elv_l	plane_of_elev_l	axial_rot_l	elbow_flexion_l	pro_sup_l	wrist_flex_l	wrist_dev_l	
6.1500	-36.660024	-21.295724	25.019333	-19.584701	782.960172	-36.069992	24.049001	-45.000000	34.783092	-45.000000	-44.969778	-4053.128697	-1006.844246	20.071704	-153.045575	1800.151224	-190.989221	12.198259	15.145871	3.717871	27.742689	-27.425842	-45.000000	-45.000000	-2806.888332	-1346.214034	17.285466	-180.000000	361.645077	-174.894022	12.042730	-14.770791	
6.1600	-36.880544	-20.961837	24.435858	-22.918808	784.809164	-36.487415	23.959596	-45.000000	34.746121	-45.000000	-44.945488	-4053.236801	-1006.720710	20.147759	-153.239681	1800.110527	-191.195611	12.208504	15.198353	3.778784	27.812951	-27.562305	-45.000000	-45.000000	-2806.723332	-1346.056408	17.320834	-180.000000	361.530562	-174.846447	12.041321	-14.913461	
6.1700	-37.085160	-20.637792	23.866419	-26.266059	786.732443	-36.888286	23.873520	-45.000000	34.716796	-45.000000	-44.903400	-4053.367370	-1006.596544	20.231811	-153.420866	1800.080842	-191.415421	12.212239	15.254472	3.802974	27.893387	-27.682321	-45.000000	-45.000000	-2806.534304	-1345.895979	17.385328	-180.000000	361.435125	-174.801807	12.058875	-15.054794	
6.1800	-37.286190	-20.302722	23.283104	-29.620789	788.725442	-37.273096	23.773759	-45.000000	34.697466	-45.000000	-44.824039	-4053.509340	-1006.474288	20.314669	-153.586273	1800.054626	-191.650810	12.215628	15.307072	3.808258	27.976618	-27.811910	-45.000000	-45.000000	-2806.321382	-1345.743404	17.469122	-180.000000	361.342185	-174.764023	12.089473	-15.201508	
6.1900	-37.481787	-19.957949	22.688618	-32.978243	790.784118	-37.643549	23.673465	-45.000000	34.692402	-45.000000	-44.692962	-4053.670851	-1006.356116	20.401687	-153.737154	1800.036507	-191.901986	12.212054	15.366074	3.781814	28.065176	-27.937229	-45.000000	-45.000000	-2806.083469	-1345.589513	17.589191	-180.000000	361.261736	-174.730127	12.139033	-15.348724	
6.2000	-37.674599	-19.576560	22.043808	-36.333174	792.904441	-38.001893	23.563004	-45.000000	34.741966	-45.000000	-44.427235	-4053.850913	-1006.256351	20.470282	-153.859662	1800.025159	-192.167215	12.208085	15.415677	3.733650	28.150871	-28.078167	-45.000000	-45.000000	-2805.849831	-1345.444178	17.714551	-180.000000	361.176805	-174.700382	12.183606	-15.505880	
6.2100	-37.851593	-19.185693	21.387607	-39.680361	795.083137	-38.350535	23.464400	-45.000000	34.840343	-45.000000	-44.082058	-4054.051267	-1006.167487	20.523862	-153.967267	1800.020204	-192.453867	12.201504	15.451939	3.668765	28.231099	-28.215260	-45.000000	-45.000000	-2805.636951	-1345.298434	17.822895	-180.000000	361.091495	-174.676775	12.212792	-15.667292	
6.2200	-38.032860	-18.697015	20.614750	-43.014070	797.317389	-38.691932	23.360372	-45.000000	35.020795	-45.000000	-43.472258	-4054.262589	-1006.103711	20.531510	-154.017942	1800.020003	-192.748171	12.202768	15.460632	3.636720	28.286216	-28.390592	-45.000000	-45.000000	-2805.489476	-1345.146648	17.896033	-180.000000	360.973005	-174.661723	12.197211	-15.843665	
6.2300	-38.192427	-18.236215	19.888904	-46.329227	799.605504	-39.028740	23.289650	-45.000000	35.201298	-45.000000	-42.903718	-4054.486066	-1006.033151	20.544249	-154.072272	1800.024574	-193.073968	12.199356	15.460323	3.592075	28.338553	-28.546311	-45.000000	-45.000000	-2805.342828	-1344.994345	17.958439	-180.000000	360.869436	-174.674514	12.181194	-16.010042	
6.2400	-38.339070	-17.776782	19.180056	-49.620113	801.945988	-39.363743	23.221770	-45.000000	35.377360	-45.000000	-42.333665	-4054.714370	-1005.958413	20.557215	-154.115082	1800.031325	-193.429841	12.194760	15.451797	3.547066	28.392598	-28.701342	-45.000000	-45.000000	-2805.191439	-1344.847428	18.019385	-180.000000	360.776926	-174.710813	12.165828	-16.170310	
6.2500	-38.457649	-17.414531	18.613895	-52.880782	804.337688	-39.699857	23.167943	-45.000000	35.470684	-45.000000	-42.028821	-4054.936063	-1005.849301	20.607999	-154.193122	1800.032003	-193.836840	12.184496	15.443195	3.491358	28.463144	-28.823553	-45.000000	-45.000000	-2804.986443	-1344.713430	18.083138	-180.000000	360.724099	-174.781184	12.178806	-16.308076	
6.2600	-38.580477	-17.025023	18.036426	-56.104919	806.779605	-40.039965	23.091181	-45.000000	35.526827	-45.000000	-41.722858	-4055.145864	-1005.728426	20.664515	-154.246519	1800.022555	-194.271795	12.178392	15.431399	3.476049	28.533737	-28.963018	-45.000000	-45.000000	-2804.769202	-1344.578845	18.158456	-180.000000	360.674818	-174.877087	12.195594	-16.438284	
6.2700	-38.682861	-16.706618	17.566074	-59.286635	809.271076	-40.386815	23.023751	-45.000000	35.517203	-45.000000	-41.617006	-4055.351054	-1005.581500	20.753774	-154.323359	1800.004080	-194.750227	12.169699	15.422619	3.456404	28.619972	-29.073581	-45.000000	-45.000000	-2804.505614	-1344.452147	18.244533	-180.000000	360.655831	-175.015704	12.236135	-16.549198	
6.2800	-38.790235	-16.341121	17.048993	-62.420039	811.811288	-40.742695	22.937868	-45.000000	35.513968	-45.000000	-41.434172	-4055.552052	-1005.438249	20.837429	-154.372526	1799.970252	-195.249776	12.167556	15.409951	3.479588	28.699546	-29.195560	-45.000000	-45.000000	-2804.259682	-1344.315012	18.326534	-180.000000	360.624378	-175.186802	12.260202	-16.658259	
6.2900	-38.883920	-15.976898	16.539528	-65.499818	814.399271	-41.109273	22.862218	-45.000000	35.531905	-45.000000	-41.233467	-4055.760200	-1005.301270	20.918704	-154.427851	1799.930223	-195.776257	12.167900	15.394415	3.500241	28.777463	-29.308336	-45.000000	-45.000000	-2804.023613	-1344.176682	18.395255	-180.000000	360.596309	-175.395402	12.273352	-16.761423	
6.3000	-38.982905	-15.532318	15.932818	-68.521124	817.033517	-41.487317	22.776130	-45.000000	35.612911	-45.000000	-40.828375	-4055.973045	-1005.190463	20.973137	-154.464506	1799.884327	-196.314273	12.175280	15.372805	3.546131	28.840393	-29.445984	-45.000000	-45.000000	-2803.832410	-1344.028242	18.447597	-180.000000	360.546428	-175.632137	12.254505	-16.869010	
6.3100	-39.069377	-15.095250	15.342275	-71.479941	819.711786	-41.876513	22.702752	-45.000000	35.703052	-45.000000	-40.433627	-4056.186459	-1005.084890	21.029827	-154.530868	1799.835101	-196.878321	12.183059	15.352076	3.585318	28.902510	-29.576993	-45.000000	-45.000000	-2803.641967	-1343.882411	18.491906	-180.000000	360.499515	-175.897799	12.231758	-16.968674	
6.3200	-39.146529	-14.656137	14.757096	-74.372903	822.430772	-42.275274	22.627234	-45.000000	35.801156	-45.000000	-40.034116	-4056.399422	-1004.987079	21.087807	-154.626776	1799.781114	-197.463444	12.190965	15.333099	3.623737	28.965259	-29.705328	-45.000000	-45.000000	-2803.455644	-1343.735478	18.529019	-180.000000	360.449041	-176.162315	12.199461	-17.065481	
6.3300	-39.215649	-14.205189	14.169963	-77.197482	825.186104	-42.680713	22.542803	-45.000000	35.903076	-45.000000	-39.616522	-4056.609644	-1004.896874	21.147428	-154.753345	1799.728460	-198.061693	12.199314	15.314120	3.662140	29.029545	-29.833721	-45.000000	-45.000000	-2803.275636	-1343.585878	18.563990	-180.000000	360.390816	-176.399134	12.154658	-17.163475	
